<svg version="1.1" id="Слой_1" xmlns="http://www.w3.org/2000/svg" x="0" y="0" viewBox="0 0 661.1 566.9" xml:space="preserve"><path d="m189.7 103 25.6-4.9-25.3-4.9 9.7-14.3-14.4 9.7-5-33.2-5.1 33.2-14.3-9.7 9.7 14.3-25.3 4.9 25.5 4.9-9.9 14.7 14.3-9.7 5.1 34.2 5-34.2 14.4 9.7zM452.2 66.3l16.9-3.3-16.7-3.2 6.4-9.5-9.5 6.4-3.3-21.9-3.4 21.9-9.5-6.4 6.4 9.5-16.7 3.2 16.9 3.3-6.6 9.7 9.5-6.4 3.4 22.6 3.3-22.6 9.5 6.4zM84.9 190.5l15.9-3-15.7-3.1 6-8.9-8.9 6.1-3.2-20.7-3.2 20.7-8.9-6.1 6 8.9-15.7 3.1 15.9 3-6.2 9.2 9-6.1 3.1 21.3 3.1-21.3 9 6.1zM519.4 149.1l24.2-4.7-24-4.6 9.2-13.6-13.6 9.2-4.8-31.4-4.8 31.4-13.6-9.2 9.2 13.6-24 4.6 24.2 4.7L492 163l13.6-9.2 4.8 32.4 4.8-32.4 13.6 9.2zM622.5 311.1c3.7.3 8.1 3.6 11.6 5 8.1 3.3 17.3 5.8 26 3.3 1.3-.4 1.4-2.3 0-2.7-7.8-2-15.1-3.9-22.4-7.5-1.6-.8-3.6-1.2-4.9-2.4-2.2-2.1 0-2.8 2.3-2.7 6.9.4 13.1 1.4 19.9-.2 1.6-.4 1.7-2.9 0-3.2-6.8-1.2-15.1-1.4-21.4-4.1-6.3-2.7 4.5-3.4 6.2-3.7 3.4-.6 6.7-1.5 9.9-2.7 1.2-.5 1.2-2.4-.3-2.3-2.4.1-17.7 1.2-17.1-2.1.5-2.7 6.7-2.2 8.7-2.6 3.6-.8 7.2-1.8 10.6-3.2 1.6-.6 1.6-3.2-.4-3.2-4.2.1-8.5.3-12.7.4-2.1.1-7.3.5-5.3-3 2.2-4-8.8-3.1-10.6-3.3-1.8-.1-6.1.3-6.7-2.2-.6-2.6 6-3.1 7.9-3.9 1.4-.6.7-2.8-.8-2.8-8.3.2-16.7 1.6-25 1.6-1.9 0-4.1-1.1-2.1-2.8 1.2-1.1 3.5-1.1 5-1.5 2.8-.8 5.5-1.7 8.2-2.7 2.2-.8 2-4.3-.6-4.2-6.4.3-12.8 1-19.1 1.7-3.3.4-6.5.7-9.8 1.1-1.6.2-5.8 1.3-6.9-.4-1.8-2.7 5.3-2.3 6.5-2.4 3.5-.3 6.9-.6 10.4-.9 3.1-.3 3.2-4.7 0-4.7-2.2 0-21 .4-19.9-2.6.2-.5 1.6-.5 2-.6 1.9-.5 2.2-3.7 0-4-4.7-.7-9.4-1.1-14.1-1.3-2-.1-5.2.4-7.1-.3-4.8-1.9 4.2-4.1 5.1-4.3 2.2-.6 1.8-4-.5-3.9-5.1.3-10.1 1-15.2 1.1-2.7.1-6.4.5-8.9-.5-5-2.1 6.9-4.1 3.1-7-2.2-1.7-6.6-.6-9.2-.7-1.6-.1-9.7.2-10.1-1.4-.4-1.4 2.6-3.4 3.4-4.3 1-1.3-.4-2.8-1.7-2.9-3-.3-5.9.6-8.9.8-3.7.3-7.6 0-11.3-.2-1-.1-2-.1-3-.2 2.7-1.1 5.2-2.5 7.4-4.4 1-.9 0-2.7-1.3-2.2-1.8.6-15 3-14.3 0 .3-1.2 4.6-2.5 5.7-3.6 1.1-1 .5-2.8-.9-3.2-6.1-1.8-14.4.3-20.8.5-2.1.1-4.3.1-6.4.1 4.1-.9 8-2.3 11.5-4.7 1-.6 1.2-2.4.2-3.1-1.2-.8-4 .2-5.4.2-4.1 0-5-2.8-7.6-5.1-2.9-2.4-7.7-1.3-11.1-1-2 .2-4.9 1.4-4.6-1.4.2-1.8 2.6-1.1 2.9-3.1.2-1.3-1.1-2.7-2.5-2.7-3.2-.1-9.5.9-11.6-1.9-1.3-1.7-.5-6-3.6-5.7-7.2.5-14.8 0-22.2-1.2 3.8-1.1 7.5-2.5 10.8-4.3 1.7-1 .9-3.4-1-3.5-4.4-.2-8.8-.1-13.2.1-2.4.1-4.7.2-7.1.4-1.3.1-3.8.8-4.8-.2-2.4-2.3 3.8-2.8 3.3-5.3-.1-.6-.7-1.1-1.3-1.3-1.6-.5-4 0-5.8 0-2.1-.1-4.2-.3-6.3-.2-4.5.1-9 0-13.4-.2 4.5-1.2 8.9-2.5 13.4-3.7 2-.5 1.4-3.2-.5-3.3-6.7-.4-13.3.1-19.9.9 1.5-1 2.9-2 4.3-3 2-1.5-.3-4-2.2-3.7-3.2.5-7 2.1-10.2 2.1-2.8 0-.4-1.1.9-1.9 2-1.2 1-3.9-1.1-4-2.6-.2-5.2 0-7.7.1.9-1.1.2-2.9-1.5-3.1-1.5-.2-3-.4-4.4-.8l-8.4 57c-.2 1.6-1.6 2.7-3.1 2.7-1.6 0-2.9-1.2-3.1-2.7l-8.6-58.4c-.4.1-.9.3-1.3.4-4.5 1.3-9.4 1.8-14.1 2.5-3.2.4.8 3.6.6 4.4-.5 1.4-3.7 1.7-4.9 1.9-3.9.7-8 .6-11.9.8-1.7.1-2.1 2.5-.4 2.9 4.1 1 4.5 3.2-.2 3.7-3.9.4-7.8.6-11.8.5-1.2 0-4.5-.8-4.9.9-1 4.1 8 1.9 8.3 4.5.2 2.1-5.3 2-6.5 2.1-6 .7-12-.2-18 .3-1.4.1-1.8 1.7-.7 2.5 2.6 1.8 5.7 2.9 9 3.4h-.2c-4.3.8-8.4 1.9-12.7 2.5-4.1.6-8.3.4-12.2 1.5-1.8.5-1.8 2.6-.5 3.6 2.7 2 6 2.7 9.4 2.9-8.7 1.5-17.4 2.9-26.1 4.4-1.7.3-8.1.3-7.2 3.3.4 1.3 2.9 1.4 2 3.2-.7 1.3-3 2-4.4 2.4-3.5 1-7.1.9-10.7 1.4-5.6.8-11.1 1.5-16.8 1.8-2.1.1-2.3 2.7-.5 3.4 2.6 1 5.2 1.9 7.9 2.4 1.3.2 8.3 0 5.4 1.9-1.8 1.2-6.3.9-8.4 1.1-2.8.3-5.7.5-8.5.7-4.7.5-9.9.4-14 2.8-1 .6-1.1 2.2 0 2.8 3.7 1.8 7.8 1.7 11.8 1.6h2.7c-2.2.4-4.4.8-6.7 1.1-5.2.8-10.6 1-15.8 1-4.3 0-9.1-.8-13.2.6-1.3.4-2 2.1-.8 3.1 2.7 2.4 6.5 3.6 10.5 4.2-7.8.3-15.6.5-23.4 1-3.3.2-.7 2.9.5 3.6.5.3 1.1.7 1.4 1.2 2.2 3.6-6.7 3.6-8.2 3.8-4.8.7-9.6 1.7-14.3 2.9-1.8.4-1.9 3.2 0 3.6 4.1.8 8.3 1.3 12.6 1.6-2.8.4-5.6.7-8.4 1-5 .5-10 .9-15.1 1.3-4.1.3-8.2.3-12.3.9-3.3.4-3.9 1.3-3.4 4.7.3 1.8-.1 2.7-2 3.4-2.3.8-4.6.8-6.9 1.2-5.1.7-10.1 1.6-15.1 2.8-1.5.3-1.6 2.7 0 3 4.7.8 9.5 1.3 14.2 1.4 2.5.1 5 0 7.5 0 .3 0 5.5-.2 5.3.3-1.1 2.4-5.5 1.5-7.7 1.8-3.5.5-7.1.8-10.6 1.3-7 .8-14.1 1.7-21 3.4-1.9.5-1.6 2.8 0 3.4 4 1.5 8.2 2.4 12.4 2.7-10.1 2.2-20.6 3.5-30.8 4.1-1.2.1-1.5 1.8-.3 2.1 6.6 1.5 13.2 2.5 19.9 2.6-9 3.1-18.1 6.1-27.6 6.5-.2 0-.4 0-.5.1 0 0 0-.1-.1-.1s-.1.1 0 .1c-1 .5-.9 1.9.2 2.4 6.1 2.4 12.6 2 19 .6-2.6 1.4-5.2 2.7-7.9 3.9-6.2 2.8-12.9 4.2-19.1 6.9-1.4.6-1.1 3 .4 3.2 4.9.9 10 .5 15-.8-8 4.8-16.2 9.2-24.5 13.5-1.7.9-.5 3.2 1.2 2.9 6.5-1.1 12.8-3 18.9-5.5 2.1-.9 7.5-4.8 9.9-3.5 2.4 1.3-4.1 5.9-5 6.8-2.7 2.5-5.4 5-8 7.6-1.5 1.4.4 3.6 2.2 2.7 6.2-3 11.9-6.8 17.3-10.9 2-1.6 3.9-3.3 5.9-4.8 3.1-2.4 5.2-1.5 1.8 1.6l-9 8.1c-1.9 1.7.6 4.7 2.7 3.5 6.9-4.1 13.6-8.5 20-13.2-4.2 5.4-8.1 11-11.9 16.7-1.6 2.3 2.2 4.3 3.8 2.1 4.9-6.5 10.1-12.8 15.5-18.9l4.1 3.8c-.3.7-.7 1.4-1 2.2-1.1 2.3 2.4 4.3 3.5 2 .2-.4.4-.8.6-1.3l31.7 28.9 3.7 30.8.8 41.7 1.5 41.7.5 9.2c-.2 0-.3-.1-.5-.1-.9-.2-9.7-1.2-9.7-1.8-3.6-.5-7.2-.9-10.8-.7-3.3.1-6.6.3-9.8.7-4.9.5-9.5 1.3-14.1 3.1-.6.2-1.1.4-1.6.7-.5-.1-.9 0-1.4.1-2.7 1.1-5.2 2.7-7.2 5-1.1 1.3-1.5 3.6 0 4.9 1.3 1.1 2.7 1.8 4.2 2.2-.6-.2-2.3 9.3-2.4 10.2-.3 2.9-.6 4.4-2.2 7-3.4 5.5-8.1 9.8-10.1 16.1-.1.4-.3.9-.4 1.4-.5 2.2-.7 4.4-.9 6.7-.4 4.4-.7 8.8-1.1 13.3-.1.6-.2 1.5-.4 2.4-13.4-.9-15.6-3.7-29.3 4.2-12.3 7-14.2 10.7-2 17.7 13 7.4 54.6 2.4 70.7 2.4h399.6c43.6 0 87.2-.4 130.8 0 13 .1 26.5 6 37.6.2.5-.3 1-.5 1.5-.8 11-6.9 11.7-18.3-2.7-22.9-.9-.3-1.8-.5-2.6-.7-.1-1.1-.4-2.3-.4-3-.4-4.5-.8-9.1-1.1-13.6-.2-2.3-.4-4.6-.9-6.8-.1-.5-.2-.9-.4-1.4-2-6.5-6.9-10.9-10.4-16.6-1.6-2.6-1.9-4.2-2.2-7.2-.1-.9-1.9-10.6-2.5-10.5 1.6-.4 3-1.2 4.3-2.3 1.6-1.3 1.2-3.7 0-5.1-2-2.3-4.5-3.9-7.4-5.1-.5-.2-1-.2-1.4-.2-.5-.2-1.1-.5-1.6-.7-4.8-1.8-9.5-2.6-14.5-3.2-3.4-.4-6.7-.6-10.1-.7-3.7-.1-7.4.2-11.1.7 0 .6-9 1.6-9.9 1.8-1.8.4-3.6.7-5.5.8-2.9.1-5.5.4-8.4-.1-2.8-.5-5.6-1.3-8.4-1.5-3.6-.3-6.2-1.8-8.4-4.8-1-1.4-1.9-2.8-2.9-4.2l2-38.6v-41.7l.2-28 34.4-31.4c.8 1.2 1.6 2.3 2.4 3.5 1.1 1.6 3.9.6 3.3-1.4-.5-1.5-1.4-3.4-2.2-5.4l3.4-3.1c1.6 2.4 2.9 5 4.5 7.4 2.1 3.1 4.1 6.3 6.1 9.5 1.5 2.3 5.5.8 4.6-1.9-.7-2.2-1.5-4.4-2.5-6.5-.8-1.9-2.2-3.6-2.1-5.8 1.1-.4 2.3.4 3.2 1.2 6.8 5.9 13.4 11.9 19.7 18.4 1.7 1.8 4.8-.5 3.5-2.6-1.3-2.1-2.7-4.1-4.2-6-1.1-1.5-4.3-4-4.1-5.9 0 0 7.5 3.6 8.3 3.9 2.1.7 5.1 1.3 5.6-1.6.1-.7-.3-1.7-1.3-1.6-.4 0-3.1-2.9-3.7-3.4-1.4-1.8-7-5.6-2.5-5.3zm-73.1-6.3c1 1.4 2.7 2 4.3 1 2-1.2.6-2.9 1.6-4.2.5-.7 3.2 1.9 5.9 4.9l-15.1 13.8.3-19.9c1 1.6 2 3 3 4.4zm-157.8-55.6c12.6-9.4 18.5-9.6 22.7-19.3.8 1 1.7 2.1 2.6 3.1.8.9 1.9 2.9 3 3.4 3.2 1.5 3.7-2.6 4.3-4.3.2-.6.4-1.1.9-1.5.5-.4 1.2-.6 1.7-.3.3.2.6.5.8.8 1.5 2.3 2.6 4.8 4 7 1.9 2.8 3.9 5.6 5.8 8.4.8 1.1 2.5 1.6 3.6.6s.3-3.6 2.8-3.1c3.1.6 6.1 6.6 7.8 8.8 2.9 3.7 6-1.6 9-1.6.7 0 1.3.2 2 .4 5.5 2.3 9.6 8.9 13.5 13.1 2.8 2.9 3.4-2.5 5.4-3.2 2.2-.7 4.1 1.9 5.1 3.3 2 3 4.1 6 6.1 9 2.1 3.2 7.3.4 5.3-3-.5-.8-.9-1.6-1.4-2.4.3.1.6.3.9.4 2.6 3.3 5.2 6.5 7.9 9.7-5 2.4-10.8 4.6-18.9 4.6-22.4 0-22.4-5.3-44.9-5.3-22.4 0-22.4-.1-44.9-.1-19.6 0-22.1 3.9-37.2 4.9 1.5-2 3.4-4.3 5.9-6.8 13.2-13.2 11.1-15.4 26.2-26.6zm-49.9-28.9c0-7.4 1.1-12.1 1.8-16.1 1.3 1.6 2.6 3 4.3 4.3 1.7 1.3 4.1.5 4.3-1.7.1-2-.2-3.9-.7-5.8-.5-1.7-1.9-4.6-.8-6.3 1.4-2.4 3.2.7 3.8 2.2 2.4 5.6 6.7 10.4 10 15.6.9 1.4 2.9 1.4 4.1.4 1.5-1.3 1.2-3.9 1.4-5.7.1-1 .4-2.2 1.4-2.3.5-.1 1 .2 1.4.4 4.7 2.9 7.3 9.5 9.8 14.1.4.8 1.3 1.3 2.2 1.4-1.8 4-4.1 8.5-8.9 13.4-13.3 13.3-13.4 13.2-26.6 26.4-3.2 3.2-6.2 5.4-8.9 7-.9-2.9-1.5-6.2-1.5-10.3-.3-18.5 2.9-18.5 2.9-37zm-65 .7c3-3.9 6.1-7.7 9.4-11.4 1.7-1.9 3.5-3.7 5.1-5.7.8-1 4.7-5.4 4.3-1.6-.1 1.4-2 3.1-2.7 4.2-1 1.6-1.8 3.3-2.5 5.1-1 2.5 2.8 3.6 4.1 1.7 4.6-6.3 12.1-10.8 18.2-15.7.5 5.8 4 11.3 6.1 22.6 3.3 18.2-.6 18.6-.6 37.1 0 4-.4 7.2-1 9.9-3-1.8-6.4-4.1-10.2-7.9-13.3-13.3-12.2-14.3-25.4-27.6-3.5-3.5-5.7-6.7-7.3-9.6.8.1 1.9-.3 2.5-1.1zm-121.9 51.4c2.8-1.2 4.6-5 6.1-7.4.6-.9 1.8-3.6 2.9-3.9 2.5-.9 1.2 3 .8 4.1-.7 1.9-1.1 3.9-1.2 5.9 0 .3 0 .5.1.7 1.2 2.3 4.3 1.7 5.5-.2 4.1-6.3 8.6-12.3 13.4-18 1.4-1.6 2.9-3 4.4-4.6 1.2-1.2 2.3-3.2 4.1-3.5 2.8-.4-2.6 10.9-3 12-.9 2.2 2.4 3.1 3.6 1.5 3-4.1 5.8-8.3 8.8-12.4 2-2.9 4.7-8.7 9-8.5.1 3.1-.5 6.3-1.7 9.3-.6 2.6 2.9 4.1 4.4 1.8 2.4-3.6 5-7.1 7.7-10.4 1.4-1.7 2.8-3.3 4.2-4.9.5-.5 2.9-3.4 3.7-3.3.3.1.4.4.5.7.4 3-1.6 6.7.9 9.2 2.5 2.5 5.2-.6 6.7-2.6 1.7-2.4 3.4-4.9 5.3-7.2 4.3 7.7 10.8 8.8 23 17.4 15.4 10.9 15.1 11.2 28.3 24.5 3.2 3.2 5.3 6.3 6.8 9.1-15.1 0-17.7.2-37.2.2-22.4 0-22.4-5.2-44.9-5.2-22.4 0-22.4 2-44.9 2-13.4 0-20.6-4.9-28.3-6.5 3.8-.3 8 1.5 11 .2zm-51.7 20.8c2.6-1 2.1 1.6 1.6 3.1-1.5 4.5-4 8.9-5.1 13.5-.6 2.5 3 4.1 4.4 1.8l1.5-2.4-.6 8.6-11.5-10.5c1.1-1.9 2.2-3.9 3.3-5.8 1.6-2.7 3.5-7.1 6.4-8.3zm-16.9 4.5c.9-.7 2.1-1.1 3.3-.9.1 2.2-.6 3.8-1.4 5.6l-3.5-3.2c.5-.5 1-1 1.6-1.5zM59.3 513.9c1.4-1.9 5.7-5.2 7.8-2 1.5 2.3-.6 6.7-.4 9.3.3 2.6 1.2 5 2.3 7.3 1.7 3.5 3.9 6.8 5.2 10.5-6.5.4-11.1 1-22.9 1 1-3.1.7-6.7 1-9.8.7-6.6 3.1-11 7-16.3zm22.9 24.8c-.4-3.2-1.1-6.2-2.3-9.3-1.6-4.3-2.9-6.9.3-10.8 1.5-1.8 3.5-3.8 4.4-5.9.3-.8 1.1-4.6 1.6-5.9 6.1 2.8 12 5 19.2 4.8 2.7-.1 5.3-.3 7.9-.6l-.5 26.5c-6 .5-10.9 1.1-22.6 1.1-3.1 0-5.7 0-8 .1zm177.1 1.2c4.1-1.2 8.9-3.1 10.7-7 2.5-5.5 3.7-10.2 1.9-16.2-2.2-7.6-7.6-13.5-13.1-18.6-2.8-2.6-5.8-5-8.8-7.5-1.3-1-3.3-2.1-4.2-3.5-2.4-3.3 4.8-5.2 6.2-6.8 1.1-1.3 1.9-3.4 3.9-2.3 1 .5 1.6 1.6 2.1 2.7s.9 2.2 1.8 3c.3.3.6.5.9.6.6.2 1.3.1 1.9-.2 1.4-.7 2.2-2.2 2.5-3.8.6-3.3-.8-6-1.2-9.2-.4-4.1-.5-8.2-.7-12.3-.1-1.6-.2-3.2-.5-4.8-.5-2.7-1.7-5-.2-7.7 1.3-2.3 3.8-3.5 5.3-5.6 2.7-3.6 2.7-7.9 1.7-12.2-.3-1.1-.9-2.3-1.9-2.1-.3.1-.5.2-.8.4-1.8 1.2-2.6 3.8-4.5 4.8-1.2.6-2.4.2-3.5 1.1-2 1.6-1.8 5.3-2.7 7.6-1 2.5-3.1 2.6-5 3.8-2.2 1.3-4.2 4.2-6 6.1-.9.9-2 1.9-3.2 1.7-.5-1-.4-2.2-.2-3.3.8-5.5 1.2-11.8 3.5-16.8 1.3-2.8 1.7-9.1 5.4-9.5 2.6-.3 4.5 2.1 7 2 3.3-.2 4.5-4.8 7.4-4.7 3.2.1 2.2-5 2.8-7.1 1.3-4.5 3.8-8.1 4.6-12.8.2-1.3.1-2.8-.5-3.9-1-1.7-.6-3.6-1.5-5.4-.8-1.8-2.3-3.5-4-4.4-8-4.1-19.3-4.5-25.9 2.5-.7.7-1.3 1.8-2.1 2.4-1.2.9-1 .4-2.4.8-.6.2-1 .7-1.1 1.3-.1.6.2 1.3.6 1.7-5.2 4.6-9.5 11-13.7 16.7-2.2 2.9-4.1 6.2-6.5 8.9-2.4 2.6-4.6 5.4-6.6 8.4-2.1 3.2-4 6.6-5.6 10.1-2.4 5-4.1 8.9-8 12.6-2.9 2.8-6.7 6-6.8 10.6 0 2.1.5 4.6 2.1 6.1 2 1.9 4.6 1.2 4.2 5.1-.1 1.3-.6 2.6-1.1 3.8-.8 2.2-1.6 4.4-2.3 6.7-.4 1.4-.8 2.8-.8 4.3.1 2.8 2 3 3.6 4.7 2.2 2.3.8 5.3.3 8.2-.8 5-2.4 9.8-4.7 14.2-.8 1.6-2 4.5-3.7 5-2.1.6-4.4-1-6.7-.2-1.3.5-2.5 1.3-3.6 2.2-2.8 2.4-5.2 5.4-7.3 8.6-1.6 2.5-4.9 6.2-5.5 9.1 0 .2-.1.4-.1.6-5.4-.3-10.6-1.1-15.9-1.9-1.4-5.4-1.1-10.8 1.5-16.2 1.7-3.5 2-6.9 2.7-10.7.4-2 .7-4.2 1.8-5.9 1.2-1.9 2.7-3.6 3.8-5.6 2.3-4.1 4.1-8.6 5.1-13.2.8-3.7 1.4-7.8 3.4-11.1 2.6-4.1 6-2.1 9.9-3.1.3-.1.5-.2.8-.3 3.1-1.3 5.2-4 4.5-7.4-.3-1.5-1.1-3-2.1-4.1-.6-.7-1.5-.9-2.1-1.5-1.8-1.7-2-3.8-3.1-5.8-1.2-2.2-3-4-5-5.5-2.2-1.7-5-2.6-7.8-2.3-3.6.4-5.1-3.1-8.4-3.2-1.3 0-2.8.3-3.4 1.4-1 1.7-.2 4.1.1 5.9.5 2.5.3 2.9-1.4 4.7-1.8 1.9-3.2 4.2-4.7 6.4l-.1-1.5L139 418l-1.6-41.7-3.6-41.6 1.8-28.7c13.4 6 17.2.7 36.6-1.7 22.3-2.8 22.5 2.7 45 2.7 22.4 0 22.4-3.4 44.9-3.4 22.4 0 22.4.4 44.9.4 22.4 0 22.4-1.4 44.9-1.4 22.4 0 22.4 4.9 44.9 4.9 22.4 0 22.4-3.1 44.9-3.1 22.4 0 22.4-1 44.9-1 14 0 19.7 3.7 26.7 3.8l1.2 27.4-1.4 41.7-.2 41.7v33.7c-.8 1.7-1.2 3.5-2.7 4.9-.6.6-1.6.9-2.2 1.5-1.1 1.2-1.9 2.7-2.2 4.2-.7 3.5 1.4 6.3 4.6 7.6.3.1.5.2.8.3.6.2 1.1.2 1.7.3l.2 30.8-2.5 38.7c-3.7.1-7.3.3-12.7.3v-.8c0-3-1.2-5.8-2.3-8.5-5.3-12.8-11.7-25.7-15.1-39.2-.3-1.2-2.7-18.6 1.2-17.1 1.5.6 1.8 2.5 3.2 2.9.5.1 1-.2 1.6-.1.9.2 2 .8 2.9.5 1.3-.4 1-1.7 1.4-2.8.6-1.4 1.5-2.3 1.5-4 0-1.5-.7-2.8-.9-4.3-.2-1.7.9-2 1.4-3.4.2-.4.2-.8.2-1.3-.1-1.4-.5-2.7-1.1-4-.9-2.1-2.5-3.8-1.5-6.1.3-.8.8-1.6.9-2.4.2-1.2-.5-2.3-1.1-3.3-4-5.5-6.6-12-8.4-18.6-.4-1.4-1-2.9-1.3-4.3-.3-1.5.1-3.2-.1-4.7-.1-1.7-.5-3.3-1-4.9-.1-.4-2-4.2-2-4.3 1.5-2 1.3-4.8.9-7.2-1.3-7.2-3.9-14-6.8-20.6-1.2-2.8-2.8-5.5-4.4-8-.9-1.4-1.8-2.7-2.9-4-.4-.5-2.9-2.6-3-3.2-.1-3.4-.2-6.9-.6-10.3-.3-2.2-1.3-4.4-2.2-6.3-1.7-3.7-2.9-7.3-3.7-11.4-.5-2.2-.9-4.5-1.5-6.7-.3-.9-.7-1.8-.8-2.8-.1-.9.3-1.8-.5-2.6-.3-.3-.6-.5-.9-.7-.7-.6-1.1-2.1-1.6-2.9-.6-1-1.4-1.9-2.2-2.7-1.7-1.6-3.8-2.6-6-3-6.7-1.2-14.8 3-17.1 11.1-.3 1.2-.4 2.6-.9 3.7-.3.6-1 .9-1.3 1.5-.8 1.5 1 2.5 1.3 4 .2 1.3-.2 2.5 0 3.8.8 4.9 2.9 9.5 2.6 14.6-.1 1.7-.3 3.3.1 4.9.3 1.4 1 2.7.7 4.1-.7 3-3.6 5.1-5.2 7.5-3.1 4.8-4.7 10.3-6.1 15.8-.7 2.8-1.3 5.6-2.1 8.3-.4 1.4-1.2 5.8-2.7 6.4-.6.2-1.2-.3-1.7-.8-3-3.2-5.7-6.6-9.8-8.4v-3c-.1-6.2 0-12.3 1.3-18.3 1.1-5.3 4.3-9.5 6.9-14.1 4.2-7.3 4.2-15.6-1.6-22-4.7-5.3-12.5-5.1-17.7-1-2.4 1.9-3.9 5.5-4.1 8.5-.3 4.6 5 10.7 1.4 14.4-2.3 2.4 1.3 6.1 3.6 3.7 2.2-2.2 3.3-4.7 2.9-7.9-.4-3.9-3.5-6.7-2.7-10.8 1-5.6 6.8-6.8 11.2-4.5 4.7 2.5 5.4 8.7 4.1 13.3-1.2 4.3-4.5 8.1-6.6 12-2.1 3.9-2.9 8.3-3.5 12.7-.8 5.7-.8 11.6-.7 17.4-.1.1-.2.1-.3.2-3.1 2.5-1.2 4.6-.9 7.9.1.9-.1 1.8-.1 2.8 0 2.2.7 4 1.8 5.6.1 9 .3 18 .4 27-.9 7.4-1.3 15 .4 22.4.4 22.2.7 44.4 1.1 66.6-4.6 2.2-7.2 7.7-11.8 10.1-1.9 1-1.7 3.4-.6 4.9-3.5.1-7.7.1-13.8.1.1-.7 0-1.4-.2-2.3-2.2-6.5-5.2-12.8-9.1-18.3-1.8-2.6-5.3-5.1-6.6-7.9-1-2-1.9-4-2.6-6.1.4-.1.8-.3 1.2-.4.1 0 .3-.1.3-.2.1-.1.1-.3.2-.5.1-1.2 0-2.6.3-3.7.1-.3 1.3-2.3 1.3-2.4 2 2.2 3.5 6 4.2 7.5.3.5.6 1.9 1.4 1.7 2.1-.4.7-8.8.7-10.3 0-.4 0-.8.1-1.1.8-1.8 3.8 2.1 4.4 2.9.4.5 1 1.6 1.7 1.7 1.9.2 1.2-3.3 1.1-4.4-.2-1.3-1.1-2.4-1.2-3.8-.1-2.4 1.9-1 3.2-.2 3.3 2 6.4 4.2 9.2 6.9.2.2.4.4.7.3.3-.1.4-.4.4-.7.2-1.5-.6-2.9-1.4-4.2-.5-.8-1-1.7-1.6-2.5-.5-.7-1.2-1.3-.2-1.6.6-.2 2.1.4 2.7.6 1 .3 2 .6 2.9.9.4.1.9.2 1-.2.1-.1 0-.3 0-.5-.3-1.2-1-2.3-1.9-3.2-.4-.4-.8-.7-1.2-1-1.2-.9-2.9-1.2-4.1-2.1-.5-.4-1.2-.9-1.2-1.6-.2-2.7 3.6-.5 4.5-1.6.6-.7-.8-2.9-1.3-3.4-.8-1-1.8-1.8-2.9-2.6-2.7-2-5.7-3.5-8.5-5.2-1.7-1-3.5-2.3-.6-3.4 1.1-.4 2.5-.3 1.5-1.8-.5-.8-2-1.1-2.8-1.4-1.9-.7-3.9-.8-5.9-.8.7-2.5 1.1-5.2 1.1-8 0-16.6-13.3-30.2-29.7-30.2s-29.7 13.5-29.7 30.2c0 3.6.6 7 1.7 10.1-5.6.8-12.5 3.1-17.2 5.8-1.6.9-5.6 3.5-5.5 5.7.1 1.9 2.6 1 3.9 1.2 1.8.3 2.8 1.2 1.5 3-1.4 1.8-3.3 3.2-4.6 5.2-1.3 2-2.2 4.3-2.4 6.7 0 .4-.1.9.2 1.2.3.4 1 .4 1.4.1.4-.3.7-.8 1-1.2.9-1.5 2-2.8 3.2-4 .7-.7 1.5-1.9 2.6-1.2.9.5-.4 2.2-.7 2.9-.7 1.8-1.1 3.6-1.4 5.5-.5 3.8-.1 7.7 1.2 11.3.6.1 1.1-.3 1.4-.8.3-.5.3-1.1.3-1.7.2-3 .9-6.9 2.2-9.5.8-1.6 1.7-1.3 1.7.6-.1 3.8-.3 7.4.6 11.2.2.9.4 2.2.8 3 .2.5 1.1 1.3 1.6.8.5-.4.2-2.7.2-3.4 0-4.5.8-8.4 4-11.7 3.8-3.8 3.9 7.2 4.5 9 .2.6.3 1.4.8 1.8.5.4 1 .5 1.4.4-.2 1.8-.8 3.4-2 4.6-2.4 2.5-4.9 4.6-7 7.4-4.1 5.4-7.2 12.5-9.2 19-.3.8-.3 1.6-.1 2.3-8.7 0-17.4-.6-25.9-2-.5 0-1.3-.1-2-.2zm146.1-37.4c.3 3.5.1 9.4 2.8 12.1.3.3.8.5 1.3.4.2-.1.4-.2.7-.2.4.1.5.6.6 1 .2 2.8.5 7-2.5 8.2-1.6.6-3.4.4-5.1.6l-1.8.3-.9-52.6c.1.1.2.3.3.4.6.8 1.5 1.3 2.4 1.4 1.1.1 1.1-.6 1.8.4.5.8.6 3.2.7 4.1.3 3.1 0 6.2-.2 9.4-.4 4.9-.5 9.7-.1 14.5zm-59.5-42.1c-3.5-3-6.6-6.7-10.9-8.6-8.3-3.7-16.1 1.8-21.3 8.3-1.6 2-3.4 3.9-5.5 5.3-1-2.6-1.5-5.5-1.5-8.4 0-13.5 10.8-24.5 24.1-24.5s24.1 11 24.1 24.5c0 2.7-.4 5.2-1.2 7.6-2.7-.6-5-1.8-7.8-4.2zm-22.5 78.7c-8.2.3-16.2 1.9-24.5 2.7 2.3-7.3 5-14.5 10.9-19.3 11.6-9.4 26.9-11.3 37.9.2 5 5.2 7.6 11.6 9.9 18.4-11.4-.8-22.8-2.4-34.2-2zm298.7-28.3c2.1-3.2 6.5.1 8 2.1 4.1 5.4 6.5 9.9 7.2 16.8.3 3 0 6.7 1 9.9-4.2.2-8.4.7-12.6.9-3.8.1-7.6.3-11.4.4 1-4.7 3.8-8.7 5.9-13 1.2-2.4 2.1-4.9 2.4-7.5.2-2.8-2-7.3-.5-9.6zm-58.7 9.7c.1-2.8 0-5.7.2-8.5.1-1 0-2.9.6-3.8.8-1.3.8-.9 2.3-.4 5.4 1.9 10.6 2.5 16.3 2.7 7.3.2 13.5-2.1 19.7-4.9.5 1.2 1.3 5.2 1.6 6 1 2.2 3 4.2 4.6 6.1 3.3 4 2 6.7.3 11.1-1.5 4-2.3 7.9-2.6 12.1-3.6-.1-7.2-.4-10.7-.9-8.6-1.4-17.3-4-26.1-4-2.4 0-4.6.1-6.5.2.2-5.3.1-10.4.3-15.7zm-14.1-5.1c3 4.9 4.7 10.4 5.8 15.9.3 1.7.8 3.6 1 5.4-3.2.4-5.9 1-8.7 1.5.7-3.4 1.1-6.8.8-10.5-.2-2.7-1.3-5.4-1.6-8.1-.3-1.8.1-8.5 2.7-4.2z"/><path d="m308 105.9-22.1 32.7 32-21.7 11.2 76.1 11.2-76.1 32 21.7-22.1-32.7L407 95l-56.2-10.8 21.6-31.9-31.9 21.6L329.1 0l-11.3 73.9-31.9-21.6 21.6 31.9L251.2 95l56.8 10.9zm1.6-30 13 8.8 6.5-42.8 6.5 42.8 13-8.8-8.5 12.6 33.4 6.4-34 6.6 9.1 13.5-13.1-8.9-6.4 43.5-6.4-43.5-13.1 8.9 9.1-13.5-34-6.6 33.4-6.4-8.5-12.6z"/></svg>